<svg width="16" height="16" viewBox="0 0 16 16" fill="none" xmlns="http://www.w3.org/2000/svg">
<path d="M8 13.0909C7.29575 13.0909 6.63394 12.9572 6.01454 12.6898C5.39515 12.4227 4.85636 12.06 4.39818 11.6018C3.94 11.1437 3.57735 10.6049 3.31025 9.98548C3.04281 9.36609 2.90909 8.70427 2.90909 8.00003C2.90909 7.29579 3.04281 6.63397 3.31025 6.01457C3.57735 5.39518 3.94 4.85639 4.39818 4.39821C4.85636 3.94003 5.39515 3.57722 6.01454 3.30977C6.63394 3.04267 7.29575 2.90912 8 2.90912C8.70424 2.90912 9.36606 3.04267 9.98545 3.30977C10.6048 3.57722 11.1436 3.94003 11.6018 4.39821C12.06 4.85639 12.4226 5.39518 12.6897 6.01457C12.9572 6.63397 13.0909 7.29579 13.0909 8.00003C13.0909 8.70427 12.9572 9.36609 12.6897 9.98548C12.4226 10.6049 12.06 11.1437 11.6018 11.6018C11.1436 12.06 10.6048 12.4227 9.98545 12.6898C9.36606 12.9572 8.70424 13.0909 8 13.0909Z" fill="white"/>
<path fill-rule="evenodd" clip-rule="evenodd" d="M8 14.5455C11.615 14.5455 14.5455 11.615 14.5455 8C14.5455 4.38505 11.615 1.45455 8 1.45455C4.38505 1.45455 1.45455 4.38505 1.45455 8C1.45455 11.615 4.38505 14.5455 8 14.5455ZM8 16C12.4183 16 16 12.4183 16 8C16 3.58172 12.4183 0 8 0C3.58172 0 0 3.58172 0 8C0 12.4183 3.58172 16 8 16Z" fill="white" fill-opacity="0.5"/>
</svg>
