<svg width="366" height="366" viewBox="0 0 366 366" fill="none" xmlns="http://www.w3.org/2000/svg">
<g clip-path="url(#clip0_248_188)">
<path d="M366 183C366 284.068 284.068 366 183 366C81.9319 366 0 284.068 0 183C0 81.9319 81.9319 0 183 0C284.068 0 366 81.9319 366 183Z" fill="black"/>
<path d="M366 183C366 158.968 361.267 135.172 352.07 112.969C342.873 90.7663 329.394 70.5926 312.401 53.5995C295.407 36.6063 275.234 23.1267 253.031 13.93C230.828 4.73343 207.032 -1.05047e-06 183 0L183 183H366Z" fill="#3F4044"/>
<path d="M183 366C207.032 366 230.828 361.267 253.031 352.07C275.234 342.873 295.407 329.394 312.401 312.401C329.394 295.407 342.873 275.234 352.07 253.031C361.267 230.828 366 207.032 366 183L183 183L183 366Z" fill="#4081F7"/>
<path d="M7.39579e-07 183C-1.36136e-06 207.032 4.73344 230.828 13.93 253.031C23.1267 275.234 36.6063 295.407 53.5994 312.401C70.5926 329.394 90.7663 342.873 112.969 352.07C135.172 361.267 158.968 366 183 366L183 183L7.39579e-07 183Z" fill="#626569"/>
<path d="M183 -2.3258e-05C158.968 -2.22075e-05 135.172 4.73342 112.969 13.93C90.7663 23.1266 70.5926 36.6063 53.5995 53.5994C36.6063 70.5926 23.1266 90.7663 13.93 112.969C4.73343 135.172 -2.10094e-06 158.968 0 183L183 183L183 -2.3258e-05Z" fill="#808589"/>
<rect x="223" y="268" width="70" height="16" fill="white"/>
<rect x="223" y="236" width="70" height="16" fill="white"/>
<rect x="74" y="104" width="70" height="16" fill="white"/>
<rect x="240.729" y="82.0005" width="70" height="16" transform="rotate(45 240.729 82.0005)" fill="white"/>
<rect x="228" y="131.498" width="70" height="16" transform="rotate(-45 228 131.498)" fill="white"/>
<rect x="99" y="295" width="70" height="16" transform="rotate(-90 99 295)" fill="white"/>
<rect x="73" y="252" width="70" height="16" fill="white"/>
</g>
<defs>
<clipPath id="clip0_248_188">
<rect width="366" height="366" fill="white"/>
</clipPath>
</defs>
</svg>
