<svg width="366" height="366" viewBox="0 0 366 366" fill="none" xmlns="http://www.w3.org/2000/svg">
<g clip-path="url(#clip0_248_196)">
<path d="M366 183C366 284.068 284.068 366 183 366C81.9319 366 0 284.068 0 183C0 81.9319 81.9319 0 183 0C284.068 0 366 81.9319 366 183Z" fill="white"/>
<path fill-rule="evenodd" clip-rule="evenodd" d="M62 153.5V260C62 271.046 70.9543 280 82 280H283C294.046 280 303 271.046 303 260V153.5H62Z" fill="#454648"/>
<path d="M127.894 94.2235L149.303 69.3882C150.063 68.5068 151.169 68 152.333 68H216.667C217.831 68 218.937 68.5068 219.697 69.3882L241.106 94.2235C242.626 95.9864 244.838 97 247.166 97H283C294.046 97 303 105.954 303 117V153.5H62V117C62 105.954 70.9543 97 82 97H121.834C124.162 97 126.374 95.9864 127.894 94.2235Z" fill="#5C6167"/>
<circle cx="278" cy="127" r="11" fill="white"/>
<circle cx="183" cy="192" r="65" fill="white"/>
<circle cx="183" cy="192" r="53" fill="#4081F7"/>
</g>
<defs>
<clipPath id="clip0_248_196">
<rect width="366" height="366" fill="white"/>
</clipPath>
</defs>
</svg>
