<svg
   xmlns="http://www.w3.org/2000/svg"
   viewBox="0 0 64 88">
  <path
     d="m 12.99994,44.99979 h 37.999818 v 6.999965 H 12.99994 Z"
     fill="#fff" />
  <path
     d="m 12.99994,56.99973 h 27.999866 v 6.999969 H 12.99994 Z"
     fill="#fff" />
  <path
     d="M 41.999802,21.999897 54.064745,24.279884 63.999699,21.999897 41.999802,0 38.964817,10.429951 Z"
     fill="#1967d2" />
  <path
     d="m 12.99994,32.999844 h 37.999818 v 6.999967 H 12.99994 Z"
     fill="#fff" />
  <path
     d="M 41.999802,21.999897 V 0 H 5.9999717 C 2.6849874,0 0,2.6849874 0,5.9999717 V 81.999614 c 0,3.314984 2.6849874,5.999971 5.9999717,5.999971 H 57.999727 c 3.314984,0 5.999972,-2.684987 5.999972,-5.999971 V 21.999897 Z M 39.999811,62.999702 H 13.999934 V 57.999727 H 39.999811 Z M 49.999765,50.999758 H 13.999934 v -4.999975 h 35.999831 z m 0,-11.999941 H 13.999934 V 33.99984 h 35.999831 z"
     fill="#4285f4" />
</svg>
