<svg width="16" height="16" viewBox="0 0 16 16" fill="none" xmlns="http://www.w3.org/2000/svg">
<path d="M15.9999 8.17777C15.9999 7.52 15.9455 7.04 15.8276 6.54224H8.16309V9.51107H12.662C12.5713 10.2489 12.0815 11.36 10.993 12.1066L10.9778 12.206L13.4011 14.0458L13.569 14.0622C15.111 12.6666 15.9999 10.6133 15.9999 8.17777Z" fill="#4285F4"/>
<path d="M8.16274 16C10.3668 16 12.2172 15.2889 13.5687 14.0622L10.9927 12.1067C10.3034 12.5778 9.37815 12.9067 8.16274 12.9067C6.004 12.9067 4.17179 11.5111 3.51866 9.58228L3.42293 9.59024L0.903071 11.5013L0.870117 11.5911C2.21252 14.2044 4.96993 16 8.16274 16Z" fill="#34A853"/>
<path d="M3.51928 9.58213C3.34695 9.08436 3.24721 8.55099 3.24721 7.99991C3.24721 7.44877 3.34695 6.91546 3.51022 6.41769L3.50565 6.31168L0.954216 4.36987L0.870738 4.40879C0.317468 5.49324 0 6.71103 0 7.99991C0 9.28879 0.317468 10.5065 0.870738 11.591L3.51928 9.58213Z" fill="#FBBC05"/>
<path d="M8.16274 3.09329C9.69562 3.09329 10.7296 3.74218 11.3192 4.28443L13.6231 2.07999C12.2082 0.79111 10.3668 0 8.16274 0C4.96993 0 2.21252 1.79553 0.870117 4.40883L3.50959 6.41773C4.17179 4.48886 6.004 3.09329 8.16274 3.09329Z" fill="#EB4335"/>
</svg>
