<svg width="366" height="366" viewBox="0 0 366 366" fill="none" xmlns="http://www.w3.org/2000/svg">
<g clip-path="url(#clip0_248_179)">
<path d="M366 183C366 284.068 284.068 366 183 366C81.9319 366 0 284.068 0 183C0 81.9319 81.9319 0 183 0C284.068 0 366 81.9319 366 183Z" fill="white"/>
<path d="M177.282 64.0929C190.062 53.5482 208.97 55.3603 219.515 68.1403C230.06 80.9202 228.247 99.8285 215.468 110.373L143.826 169.484C131.046 180.028 112.138 178.216 101.593 165.436C91.0488 152.656 92.8609 133.748 105.641 123.203L177.282 64.0929Z" fill="#FEBC03"/>
<path d="M167 87C167 70.4315 180.432 57 197 57C213.569 57 227 70.4315 227 87V291C227 307.569 213.569 321 197 321C180.432 321 167 307.569 167 291V87Z" fill="#4081F7"/>
<path d="M167 291.359C167 307.928 180.432 321.359 197 321.359C213.569 321.359 227 307.928 227 291.359V277.359L167 228V291.359Z" fill="#2EA950"/>
<path d="M167 87C167 70.4315 180.432 57 197 57C213.569 57 227 70.4315 227 87V101L167 150.359V87Z" fill="#EE402F"/>
</g>
<defs>
<clipPath id="clip0_248_179">
<rect width="366" height="366" fill="white"/>
</clipPath>
</defs>
</svg>
