<svg width="48" height="45" viewBox="0 0 48 45" fill="none" xmlns="http://www.w3.org/2000/svg">
<path d="M33.4805 16.7442H45.8791C47.0504 16.7442 48 17.6938 48 18.8651V30.1585C48 34.4636 44.5101 37.9535 40.205 37.9535H40.1682C35.8631 37.9541 32.3727 34.4647 32.3721 30.1596C32.3721 30.1596 32.3721 30.1589 32.3721 30.1585V17.8527C32.3721 17.2405 32.8684 16.7442 33.4805 16.7442Z" fill="#5059C9"/>
<path d="M41.8604 14.5116C44.6347 14.5116 46.8837 12.2626 46.8837 9.48838C46.8837 6.71411 44.6347 4.46512 41.8604 4.46512C39.0861 4.46512 36.8372 6.71411 36.8372 9.48838C36.8372 12.2626 39.0861 14.5116 41.8604 14.5116Z" fill="#5059C9"/>
<path d="M26.2325 14.5116C30.2398 14.5116 33.4883 11.2631 33.4883 7.25582C33.4883 3.24854 30.2398 0 26.2325 0C22.2252 0 18.9767 3.24854 18.9767 7.25582C18.9767 11.2631 22.2252 14.5116 26.2325 14.5116Z" fill="#7B83EB"/>
<path d="M35.9073 16.7442H15.4415C14.284 16.7728 13.3685 17.7334 13.3953 18.8908V31.7716C13.2337 38.7173 18.7288 44.4812 25.6744 44.6512C32.62 44.4812 38.1151 38.7173 37.9535 31.7716V18.8908C37.9803 17.7334 37.0647 16.7728 35.9073 16.7442Z" fill="#7B83EB"/>
<path opacity="0.1" d="M26.7907 16.7442V34.7944C26.7852 35.6222 26.2836 36.3658 25.5182 36.6809C25.2745 36.784 25.0125 36.8372 24.7479 36.8372H14.3777C14.2326 36.4689 14.0986 36.1005 13.987 35.721C13.5962 34.4401 13.3969 33.1085 13.3954 31.7693V18.8875C13.3685 17.7319 14.2826 16.7728 15.4381 16.7442H26.7907Z" fill="black"/>
<path opacity="0.2" d="M25.6745 16.7442V35.9107C25.6745 36.1753 25.6213 36.4372 25.5182 36.6809C25.203 37.4463 24.4594 37.948 23.6317 37.9535H14.9023C14.7126 37.5851 14.534 37.2168 14.3777 36.8372C14.2214 36.4577 14.0986 36.1005 13.987 35.721C13.5962 34.4401 13.3969 33.1085 13.3954 31.7693V18.8875C13.3685 17.7319 14.2826 16.7728 15.4381 16.7442H25.6745Z" fill="black"/>
<path opacity="0.2" d="M25.6744 16.7442V33.6782C25.6659 34.8028 24.7563 35.7124 23.6316 35.721H13.987C13.5962 34.4401 13.3969 33.1085 13.3954 31.7693V18.8875C13.3685 17.7319 14.2826 16.7728 15.4381 16.7442H25.6744Z" fill="black"/>
<path opacity="0.2" d="M24.5581 16.7442V33.6782C24.5496 34.8028 23.64 35.7124 22.5153 35.721H13.987C13.5962 34.4401 13.3969 33.1085 13.3954 31.7693V18.8875C13.3685 17.7319 14.2826 16.7728 15.4381 16.7442H24.5581Z" fill="black"/>
<path opacity="0.1" d="M26.7907 10.973V14.4893C26.6009 14.5005 26.4223 14.5116 26.2325 14.5116C26.0427 14.5116 25.8641 14.5005 25.6744 14.4893C25.2976 14.4643 24.9239 14.4045 24.5581 14.3107C22.2976 13.7754 20.4301 12.1901 19.5348 10.0465C19.3808 9.68657 19.2612 9.31279 19.1776 8.93027H24.7478C25.8743 8.93453 26.7864 9.8466 26.7907 10.973Z" fill="black"/>
<path opacity="0.2" d="M25.6744 12.0893V14.4893C25.2976 14.4643 24.924 14.4045 24.5582 14.3107C22.2977 13.7754 20.4302 12.1901 19.5349 10.0465H23.6316C24.7581 10.0508 25.6702 10.9629 25.6744 12.0893Z" fill="black"/>
<path opacity="0.2" d="M25.6744 12.0893V14.4893C25.2976 14.4643 24.924 14.4045 24.5582 14.3107C22.2977 13.7754 20.4302 12.1901 19.5349 10.0465H23.6316C24.7581 10.0508 25.6702 10.9629 25.6744 12.0893Z" fill="black"/>
<path opacity="0.2" d="M24.5582 12.0893V14.3107C22.2977 13.7754 20.4302 12.1901 19.5349 10.0465H22.5154C23.6418 10.0508 24.5539 10.9629 24.5582 12.0893Z" fill="black"/>
<path d="M2.04613 10.0465H22.512C23.642 10.0465 24.5581 10.9626 24.5581 12.0926V32.5585C24.5581 33.6885 23.642 34.6046 22.512 34.6046H2.04613C0.916074 34.6046 0 33.6885 0 32.5585V12.0926C0 10.9626 0.916096 10.0465 2.04613 10.0465Z" fill="url(#paint0_linear_213_441)"/>
<path d="M17.664 17.8359H13.5728V28.9764H10.9664V17.8359H6.89417V15.6748H17.664V17.8359Z" fill="white"/>
<defs>
<linearGradient id="paint0_linear_213_441" x1="426.625" y1="-149.835" x2="2029.19" y2="2625.74" gradientUnits="userSpaceOnUse">
<stop stop-color="#5A62C3"/>
<stop offset="0.5" stop-color="#4D55BD"/>
<stop offset="1" stop-color="#3940AB"/>
</linearGradient>
</defs>
</svg>
