<!DOCTYPE svg PUBLIC "-//W3C//DTD SVG 1.1//EN" "http://www.w3.org/Graphics/SVG/1.1/DTD/svg11.dtd">
<!-- Uploaded to: SVG Repo, www.svgrepo.com, Transformed by: SVG Repo Mixer Tools -->
<svg fill="#ffffff" height="256px" width="256px" version="1.1" id="XMLID_17_" xmlns="http://www.w3.org/2000/svg" xmlns:xlink="http://www.w3.org/1999/xlink" viewBox="-0.48 -0.48 24.96 24.96" xml:space="preserve" stroke="#ffffff" stroke-width="0.24000000000000005">
<g id="SVGRepo_bgCarrier" stroke-width="0"/>
<g id="SVGRepo_tracerCarrier" stroke-linecap="round" stroke-linejoin="round"/>
<g id="SVGRepo_iconCarrier"> <g id="platform-chrome"> <path d="M6.1,10.5L2.7,4.6c2.2-2.8,5.6-4.5,9.4-4.5c4.4,0,8.2,2.4,10.3,5.9h-9.8c-0.2,0-0.4,0-0.5,0C9.1,5.9,6.7,7.8,6.1,10.5z M16.3,7.6h6.9C23.7,9,24,10.5,24,12c0,6.6-5.3,11.9-11.9,12l4.9-8.5c0.7-1,1.1-2.2,1.1-3.5C18.1,10.3,17.4,8.7,16.3,7.6z M7.6,12 c0-2.4,2-4.4,4.4-4.4s4.4,2,4.4,4.4s-2,4.4-4.4,4.4S7.6,14.4,7.6,12z M13.6,17.9l-3.4,6C4.4,23,0,18,0,12c0-2.1,0.6-4.1,1.5-5.9 l4.9,8.5c1,2.1,3.1,3.5,5.6,3.5C12.6,18,13.1,18,13.6,17.9z"/> </g> </g>
</svg>