<?xml version="1.0" encoding="UTF-8" ?>
<!DOCTYPE svg PUBLIC "-//W3C//DTD SVG 1.1//EN" "http://www.w3.org/Graphics/SVG/1.1/DTD/svg11.dtd">
<svg width="800pt" height="800pt" viewBox="0 0 800 800" version="1.1" xmlns="http://www.w3.org/2000/svg">
<g id="#1a73e8ff">
<path fill="#1a73e8" opacity="1.00" d=" M 384.37 1.38 C 434.71 -0.48 485.39 7.20 532.88 24.03 C 606.39 49.91 671.89 98.06 718.50 160.52 C 770.63 229.68 799.40 316.34 797.91 403.00 C 798.03 482.83 772.26 562.24 726.56 627.58 C 707.06 655.51 684.04 681.01 658.09 703.09 C 634.68 723.17 608.68 740.10 581.38 754.41 C 526.08 782.60 464.12 797.93 402.00 797.86 C 316.16 799.10 230.51 770.50 161.79 719.23 C 104.18 676.51 58.53 617.84 31.34 551.46 C 15.87 514.05 6.33 474.24 2.67 433.94 C -1.19 390.77 2.49 347.02 12.64 304.92 C 28.01 242.12 58.87 183.17 101.91 134.90 C 152.78 77.19 221.04 35.32 295.18 15.04 C 324.28 7.17 354.23 2.48 384.37 1.38 M 157.20 217.95 C 154.90 223.34 155.42 229.29 155.28 235.00 C 155.13 247.60 155.43 260.21 155.34 272.81 C 155.31 367.20 155.17 461.60 155.31 555.99 C 153.80 576.17 169.94 595.93 189.96 598.55 C 219.64 598.73 249.32 598.94 279.00 598.84 C 387.00 598.84 495.01 598.86 603.01 598.83 C 620.18 599.26 636.73 587.40 642.21 571.18 C 644.00 566.33 644.25 561.11 644.18 555.99 C 643.95 503.99 644.45 452.00 644.36 400.00 C 644.47 376.33 643.98 352.67 644.16 329.00 C 643.73 318.01 643.89 307.01 643.67 296.01 C 643.52 287.68 644.66 279.36 643.91 271.03 C 643.87 264.12 643.30 257.02 640.14 250.75 C 634.37 239.44 623.40 230.76 610.91 228.21 C 604.36 226.63 597.63 227.98 591.00 227.73 C 584.32 227.47 577.67 228.36 571.00 228.22 C 557.00 228.13 542.99 228.31 528.99 228.15 C 520.68 227.48 512.33 227.77 504.00 227.72 C 484.00 227.67 463.99 227.94 444.00 227.32 C 425.34 228.20 406.65 227.15 388.00 228.20 C 377.66 228.24 367.33 228.30 357.00 228.43 C 352.25 228.52 347.44 228.14 342.76 229.15 C 333.10 219.17 322.90 209.73 313.28 199.70 C 311.40 198.11 309.81 195.40 307.05 195.60 C 267.70 195.57 228.35 195.61 189.01 195.58 C 175.25 195.89 162.00 204.96 157.20 217.95 Z" />
</g>
<g id="#ffffffff">
<path fill="#ffffff" opacity="1.00" d=" M 157.20 217.95 C 162.00 204.96 175.25 195.89 189.01 195.58 C 228.35 195.61 267.70 195.57 307.05 195.60 C 309.81 195.40 311.40 198.11 313.28 199.70 C 322.90 209.73 333.10 219.17 342.76 229.15 C 356.40 244.12 371.24 257.93 385.18 272.60 C 308.57 272.86 231.95 272.44 155.34 272.81 C 155.43 260.21 155.13 247.60 155.28 235.00 C 155.42 229.29 154.90 223.34 157.20 217.95 Z" />
</g>
<g id="#81f5f9ff">
<path fill="#81f5f9" opacity="1.00" d=" M 388.00 228.20 C 406.65 227.15 425.34 228.20 444.00 227.32 C 463.99 227.94 484.00 227.67 504.00 227.72 C 512.33 227.77 520.68 227.48 528.99 228.15 C 542.99 228.31 557.00 228.13 571.00 228.22 C 577.67 228.36 584.32 227.47 591.00 227.73 C 597.63 227.98 604.36 226.63 610.91 228.21 C 623.40 230.76 634.37 239.44 640.14 250.75 C 643.30 257.02 643.87 264.12 643.91 271.03 C 644.66 279.36 643.52 287.68 643.67 296.01 C 643.89 307.01 643.73 318.01 644.16 329.00 C 643.98 352.67 644.47 376.33 644.36 400.00 C 644.45 452.00 643.95 503.99 644.18 555.99 C 644.25 561.11 644.00 566.33 642.21 571.18 C 636.73 587.40 620.18 599.26 603.01 598.83 C 495.01 598.86 387.00 598.84 279.00 598.84 C 249.32 598.94 219.64 598.73 189.96 598.55 C 169.94 595.93 153.80 576.17 155.31 555.99 C 155.17 461.60 155.31 367.20 155.34 272.81 C 231.95 272.44 308.57 272.86 385.18 272.60 C 371.24 257.93 356.40 244.12 342.76 229.15 C 347.44 228.14 352.25 228.52 357.00 228.43 C 367.33 228.30 377.66 228.24 388.00 228.20 Z" />
</g>
</svg>
