<svg width="366" height="366" viewBox="0 0 366 366" fill="none" xmlns="http://www.w3.org/2000/svg">
<g clip-path="url(#clip0_248_194)">
<path d="M366 183C366 284.068 284.068 366 183 366C81.9319 366 0 284.068 0 183C0 81.9319 81.9319 0 183 0C284.068 0 366 81.9319 366 183Z" fill="white"/>
<path d="M298.592 161.932C314.415 171.186 314.415 194.054 298.592 203.308L140.643 295.688C123.524 305.7 102 293.354 102 273.522L102 91.7175C102 71.8858 123.524 59.5393 140.643 69.5516L298.592 161.932Z" fill="#0D8136"/>
<path d="M176.896 134.258H102V230.981H150.644C151.559 230.981 152.435 231.348 153.079 231.999L188.452 267.788L227.398 245.105L214.986 174.06C212.247 143.931 188.452 134.972 176.896 134.258Z" fill="#92FFD8"/>
<circle cx="151.645" cy="159.938" r="12.8394" fill="#0D8136"/>
<circle cx="151.645" cy="206.16" r="12.8394" fill="#0D8136"/>
<circle cx="128.534" cy="183.049" r="12.8394" transform="rotate(-90 128.534 183.049)" fill="#0D8136"/>
<circle cx="174.755" cy="183.049" r="12.8394" transform="rotate(-90 174.755 183.049)" fill="#0D8136"/>
</g>
<defs>
<clipPath id="clip0_248_194">
<rect width="366" height="366" fill="white"/>
</clipPath>
</defs>
</svg>
