<?xml version="1.0" encoding="UTF-8" ?>
<!DOCTYPE svg PUBLIC "-//W3C//DTD SVG 1.1//EN" "http://www.w3.org/Graphics/SVG/1.1/DTD/svg11.dtd">
<svg width="800pt" height="800pt" viewBox="0 0 800 800" version="1.1" xmlns="http://www.w3.org/2000/svg">
<g id="#5f6368ff">
<path fill="#5f6368" opacity="1.00" d=" M 383.72 2.48 C 393.54 2.03 403.40 2.29 413.23 2.31 C 417.32 3.73 421.69 3.24 425.94 3.52 C 466.59 6.18 506.85 15.12 544.81 29.92 C 616.24 57.76 679.20 106.84 723.56 169.36 C 764.99 227.19 790.34 296.43 795.89 367.35 C 796.68 373.61 796.68 379.97 796.71 386.28 C 796.95 386.31 797.42 386.36 797.66 386.39 C 797.75 395.70 797.90 405.02 797.57 414.33 L 796.86 414.93 C 794.89 480.34 775.69 545.08 742.50 601.45 C 709.39 657.68 662.39 705.81 606.44 739.48 C 554.05 771.70 493.87 790.92 432.63 795.90 C 426.33 796.67 419.95 796.70 413.61 796.70 C 413.60 796.97 413.58 797.52 413.57 797.79 C 404.67 797.67 395.77 797.82 386.87 797.72 C 385.78 797.80 384.78 797.46 383.91 796.85 C 311.82 794.50 240.68 771.12 180.62 731.28 C 119.04 690.78 69.33 632.56 38.74 565.52 C 17.37 518.63 4.80 467.56 3.12 416.04 C 2.96 415.84 2.64 415.44 2.48 415.24 C 1.93 404.99 2.46 394.71 2.19 384.46 C 2.46 384.41 3.01 384.33 3.28 384.29 C 3.08 376.18 3.93 368.13 4.63 360.08 C 10.34 303.75 28.20 248.66 56.75 199.76 C 90.27 142.36 138.26 93.40 195.43 59.39 C 251.90 25.30 317.05 5.64 382.96 3.06 C 383.15 2.92 383.53 2.62 383.72 2.48 M 335.43 148.59 C 331.85 169.84 329.49 191.27 326.47 212.60 C 326.14 214.44 326.51 216.59 325.25 218.13 C 310.25 225.31 295.68 233.51 282.23 243.33 C 281.30 244.31 280.05 243.33 279.05 243.09 C 258.81 234.99 238.75 226.46 218.36 218.72 C 215.24 217.54 211.76 216.18 208.47 217.63 C 202.76 219.88 200.00 225.85 196.96 230.75 C 180.83 259.62 163.71 287.93 147.99 317.02 C 145.47 322.71 149.15 328.81 153.58 332.36 C 171.04 346.50 188.79 360.27 206.66 373.88 C 204.72 391.13 204.46 408.58 206.34 425.85 C 188.83 440.25 170.08 453.11 153.17 468.23 C 151.15 469.96 148.95 471.65 147.78 474.10 C 146.19 479.26 148.14 484.62 150.76 489.07 C 166.68 517.18 183.02 545.06 198.87 573.21 C 201.08 577.42 204.40 581.62 209.24 582.80 C 212.13 583.64 214.92 582.23 217.61 581.37 C 239.11 573.77 259.81 564.11 281.07 555.91 C 294.81 566.03 309.41 575.14 325.23 581.66 C 328.82 604.74 331.07 628.03 335.22 651.03 C 336.01 656.72 341.22 661.44 346.93 661.74 C 379.63 662.01 412.36 661.44 445.04 662.09 C 451.48 661.82 459.80 661.69 463.53 655.51 C 468.22 632.87 470.20 609.78 473.54 586.93 C 473.94 585.27 473.25 583.00 474.89 581.89 C 489.54 574.70 503.95 566.83 517.09 557.09 C 517.97 556.18 519.20 556.01 520.30 556.67 C 541.51 565.11 562.49 574.15 583.91 582.08 C 588.12 584.12 593.21 582.66 596.20 579.20 C 600.17 574.93 602.73 569.63 605.62 564.62 C 621.12 537.06 637.54 509.99 652.43 482.09 C 654.05 476.50 650.61 471.11 646.46 467.68 C 629.01 453.40 611.10 439.70 593.67 425.40 C 595.41 408.95 595.46 392.29 593.69 375.83 C 593.08 374.29 594.64 373.48 595.55 372.63 C 613.57 357.93 632.81 344.72 649.97 328.98 C 654.64 324.48 652.69 317.10 649.89 312.11 C 633.41 282.98 616.49 254.10 600.08 224.93 C 597.98 221.44 594.87 218.21 590.81 217.19 C 588.21 216.42 585.59 217.49 583.14 218.27 C 561.35 225.90 540.46 235.79 518.94 244.10 C 505.22 233.91 490.57 224.85 474.76 218.28 C 471.19 195.23 468.87 172.00 464.81 149.02 C 463.90 142.99 458.21 138.04 452.07 138.19 C 417.72 138.22 383.37 138.20 349.02 138.20 C 342.86 137.98 336.30 142.20 335.43 148.59 Z" />
<path fill="#5f6368" opacity="1.00" d=" M 390.35 314.64 C 419.65 311.56 450.30 324.26 468.05 347.93 C 479.20 362.06 485.39 380.02 485.62 397.98 C 486.24 413.23 482.02 428.42 474.87 441.82 C 460.22 467.95 431.22 486.12 400.99 485.63 C 367.68 486.50 335.12 465.61 321.73 435.15 C 314.72 419.59 312.63 401.93 315.58 385.14 C 318.80 367.50 327.41 350.78 340.51 338.44 C 353.86 325.25 371.72 316.82 390.35 314.64 Z" />
</g>
<g id="#ffffffff">
<path fill="#ffffff" opacity="1.00" d=" M 335.43 148.59 C 336.30 142.20 342.86 137.98 349.02 138.20 C 383.37 138.20 417.72 138.22 452.07 138.19 C 458.21 138.04 463.90 142.99 464.81 149.02 C 468.87 172.00 471.19 195.23 474.76 218.28 C 490.57 224.85 505.22 233.91 518.94 244.10 C 540.46 235.79 561.35 225.90 583.14 218.27 C 585.59 217.49 588.21 216.42 590.81 217.19 C 594.87 218.21 597.98 221.44 600.08 224.93 C 616.49 254.10 633.41 282.98 649.89 312.11 C 652.69 317.10 654.64 324.48 649.97 328.98 C 632.81 344.72 613.57 357.93 595.55 372.63 C 594.64 373.48 593.08 374.29 593.69 375.83 C 595.46 392.29 595.41 408.95 593.67 425.40 C 611.10 439.70 629.01 453.40 646.46 467.68 C 650.61 471.11 654.05 476.50 652.43 482.09 C 637.54 509.99 621.12 537.06 605.62 564.62 C 602.73 569.63 600.17 574.93 596.20 579.20 C 593.21 582.66 588.12 584.12 583.91 582.08 C 562.49 574.15 541.51 565.11 520.30 556.67 C 519.20 556.01 517.97 556.18 517.09 557.09 C 503.95 566.83 489.54 574.70 474.89 581.89 C 473.25 583.00 473.94 585.27 473.54 586.93 C 470.20 609.78 468.22 632.87 463.53 655.51 C 459.80 661.69 451.48 661.82 445.04 662.09 C 412.36 661.44 379.63 662.01 346.93 661.74 C 341.22 661.44 336.01 656.72 335.22 651.03 C 331.07 628.03 328.82 604.74 325.23 581.66 C 309.41 575.14 294.81 566.03 281.07 555.91 C 259.81 564.11 239.11 573.77 217.61 581.37 C 214.92 582.23 212.13 583.64 209.24 582.80 C 204.40 581.62 201.08 577.42 198.87 573.21 C 183.02 545.06 166.68 517.18 150.76 489.07 C 148.14 484.62 146.19 479.26 147.78 474.10 C 148.95 471.65 151.15 469.96 153.17 468.23 C 170.08 453.11 188.83 440.25 206.34 425.85 C 204.46 408.58 204.72 391.13 206.66 373.88 C 188.79 360.27 171.04 346.50 153.58 332.36 C 149.15 328.81 145.47 322.71 147.99 317.02 C 163.71 287.93 180.83 259.62 196.96 230.75 C 200.00 225.85 202.76 219.88 208.47 217.63 C 211.76 216.18 215.24 217.54 218.36 218.72 C 238.75 226.46 258.81 234.99 279.05 243.09 C 280.05 243.33 281.30 244.31 282.23 243.33 C 295.68 233.51 310.25 225.31 325.25 218.13 C 326.51 216.59 326.14 214.44 326.47 212.60 C 329.49 191.27 331.85 169.84 335.43 148.59 M 386.36 242.43 C 373.18 243.66 360.14 246.58 347.64 250.95 C 318.40 261.04 292.54 280.16 273.72 304.64 C 241.30 347.31 233.40 406.87 252.38 456.82 C 258.96 474.64 269.47 490.82 281.73 505.24 C 321.65 550.52 388.79 568.92 446.39 551.32 C 462.43 546.43 477.37 538.49 491.32 529.28 C 534.44 499.28 559.63 446.24 557.83 393.99 C 557.78 378.25 554.66 362.59 549.30 347.81 C 543.30 331.62 535.42 315.95 524.54 302.46 C 492.13 261.42 438.59 237.55 386.36 242.43 Z" />
</g>
<g id="#6ba0f6ff">
<path fill="#6ba0f6" opacity="1.00" d=" M 386.36 242.43 C 438.59 237.55 492.13 261.42 524.54 302.46 C 535.42 315.95 543.30 331.62 549.30 347.81 C 554.66 362.59 557.78 378.25 557.83 393.99 C 559.63 446.24 534.44 499.28 491.32 529.28 C 477.37 538.49 462.43 546.43 446.39 551.32 C 388.79 568.92 321.65 550.52 281.73 505.24 C 269.47 490.82 258.96 474.64 252.38 456.82 C 233.40 406.87 241.30 347.31 273.72 304.64 C 292.54 280.16 318.40 261.04 347.64 250.95 C 360.14 246.58 373.18 243.66 386.36 242.43 M 390.35 314.64 C 371.72 316.82 353.86 325.25 340.51 338.44 C 327.41 350.78 318.80 367.50 315.58 385.14 C 312.63 401.93 314.72 419.59 321.73 435.15 C 335.12 465.61 367.68 486.50 400.99 485.63 C 431.22 486.12 460.22 467.95 474.87 441.82 C 482.02 428.42 486.24 413.23 485.62 397.98 C 485.39 380.02 479.20 362.06 468.05 347.93 C 450.30 324.26 419.65 311.56 390.35 314.64 Z" />
</g>
</svg>
