<?xml version="1.0" encoding="UTF-8"?>
<svg version="1.1" xmlns="http://www.w3.org/2000/svg" width="960" height="960">
<path d="M0 0 C1.27417786 -0.00705963 2.54835571 -0.01411926 3.86114502 -0.02139282 C7.95170669 -0.04092196 12.04220858 -0.04608484 16.1328125 -0.046875 C17.17844486 -0.04731686 17.17844486 -0.04731686 18.24520111 -0.04776764 C38.72820107 -0.04916661 58.95780909 0.11844089 79.2578125 3.203125 C80.69446418 3.41478523 82.1311523 3.62619815 83.56787109 3.83740234 C174.68429563 17.38760931 260.56100798 54.24412046 330.2578125 115.203125 C330.98742187 115.83347656 331.71703125 116.46382813 332.46875 117.11328125 C334.40989607 118.7973981 336.33432421 120.49887791 338.2578125 122.203125 C338.95535645 122.81583252 339.65290039 123.42854004 340.37158203 124.05981445 C346.91138594 129.86346242 353.14082232 135.93170245 359.30883789 142.1237793 C360.95021046 143.77053904 362.59690069 145.41184595 364.24414062 147.05273438 C369.79199851 152.59683305 375.19301891 158.20899566 380.2578125 164.203125 C381.1034375 165.16734375 381.9490625 166.1315625 382.8203125 167.125 C391.13628655 176.77366219 398.73424841 186.92966671 406.2578125 197.203125 C406.79583496 197.9357959 407.33385742 198.6684668 407.88818359 199.42333984 C419.91793845 215.88450646 430.55631667 233.27914177 440.2578125 251.203125 C440.69915527 252.00814453 441.14049805 252.81316406 441.59521484 253.64257812 C476.0492292 316.71574805 497.19430778 390.80641491 497.4609375 462.9453125 C497.46799713 464.21949036 497.47505676 465.49366821 497.48233032 466.80645752 C497.50185946 470.89701919 497.50702234 474.98752108 497.5078125 479.078125 C497.50825436 480.12375736 497.50825436 480.12375736 497.50870514 481.19051361 C497.51010411 501.67351357 497.34249661 521.90312159 494.2578125 542.203125 C494.04615227 543.63977668 493.83473935 545.0764648 493.62353516 546.51318359 C482.4561715 621.60651982 455.95444602 694.32830771 411.2578125 756.203125 C410.72865234 756.94191895 410.19949219 757.68071289 409.65429688 758.44189453 C399.09928069 773.14526339 387.97064202 787.35265891 375.63671875 800.61328125 C373.78290543 802.63147211 371.99836966 804.67590716 370.21875 806.7578125 C365.68340242 811.95734507 360.80108876 816.80976606 355.9152832 821.67602539 C354.32322284 823.26272446 352.7365826 824.85470242 351.15039062 826.44726562 C345.69155373 831.90993814 340.14776854 837.20306 334.2578125 842.203125 C333.20915202 843.12818822 332.16220281 844.05519591 331.1171875 844.984375 C321.26553321 853.64030983 310.84236041 861.47037238 300.2578125 869.203125 C299.5265918 869.73969727 298.79537109 870.27626953 298.04199219 870.82910156 C223.20870763 925.52164132 127.75334146 960.06163777 34.515625 960.40625 C33.24144714 960.41330963 31.96726929 960.42036926 30.65447998 960.42764282 C26.56391831 960.44717196 22.47341642 960.45233484 18.3828125 960.453125 C17.33718014 960.45356686 17.33718014 960.45356686 16.27042389 960.45401764 C-4.21257607 960.45541661 -24.44218409 960.28780911 -44.7421875 957.203125 C-46.17883918 956.99146477 -47.6155273 956.78005185 -49.05224609 956.56884766 C-124.06215054 945.4138914 -196.97894528 918.90865921 -258.7421875 874.203125 C-259.51288574 873.64737793 -260.28358398 873.09163086 -261.07763672 872.51904297 C-270.52862091 865.68410613 -279.85431983 858.76172214 -288.7421875 851.203125 C-289.27618164 850.75259766 -289.81017578 850.30207031 -290.36035156 849.83789062 C-292.13687237 848.33860715 -293.90910527 846.83441592 -295.6796875 845.328125 C-296.20473877 844.88259277 -296.72979004 844.43706055 -297.27075195 843.97802734 C-307.07221526 835.57508887 -316.40975601 826.70369825 -325.5168457 817.55883789 C-327.06803477 816.00223111 -328.62458142 814.45112329 -330.18164062 812.90039062 C-335.57871356 807.50717099 -340.80866996 802.02823213 -345.7421875 796.203125 C-346.5878125 795.23890625 -347.4334375 794.2746875 -348.3046875 793.28125 C-356.62066155 783.63258781 -364.21862341 773.47658329 -371.7421875 763.203125 C-372.54922119 762.10411865 -372.54922119 762.10411865 -373.37255859 760.98291016 C-432.6394992 679.88375262 -463.33880081 580.8384236 -463.0546875 480.765625 C-463.05246494 479.38121549 -463.05028843 477.9968059 -463.04815674 476.61239624 C-463.00562434 456.67330574 -462.70316932 436.96132996 -459.7421875 417.203125 C-459.6403717 416.51720276 -459.53855591 415.83128052 -459.43365479 415.12457275 C-450.45684486 355.0285559 -431.91724046 298.63446166 -402.7421875 245.203125 C-402.12126221 244.06520508 -402.12126221 244.06520508 -401.48779297 242.90429688 C-386.56667189 215.89876975 -368.02659425 190.39507741 -347.7421875 167.203125 C-347.11183594 166.47351563 -346.48148437 165.74390625 -345.83203125 164.9921875 C-344.1479144 163.05104143 -342.44643459 161.12661329 -340.7421875 159.203125 C-340.12947998 158.50558105 -339.51677246 157.80803711 -338.88549805 157.08935547 C-333.08185008 150.54955156 -327.01361005 144.32011518 -320.8215332 138.15209961 C-319.17477346 136.51072704 -317.53346655 134.86403681 -315.89257812 133.21679688 C-310.34847945 127.66893899 -304.73631684 122.26791859 -298.7421875 117.203125 C-297.77796875 116.3575 -296.81375 115.511875 -295.8203125 114.640625 C-286.17165031 106.32465095 -276.01564579 98.72668909 -265.7421875 91.203125 C-264.64318115 90.39609131 -264.64318115 90.39609131 -263.52197266 89.57275391 C-188.6876705 34.8841446 -93.2364522 0.34460755 0 0 Z " fill="#FF0000" transform="translate(462.7421875,-0.203125)"/>
<path d="M0 0 C1.496084 0.02152209 2.99217626 0.04249 4.48828125 0.0625 C63.13158471 2.07816671 121.61544379 30.24177957 163 71 C164.16625609 72.12802881 165.33291894 73.25563724 166.5 74.3828125 C199.973826 106.97499178 222.40155199 149.7768114 233 195 C233.38103882 196.54929199 233.38103882 196.54929199 233.76977539 198.12988281 C243.30976876 237.65988317 241.58417471 283.2407419 229 322 C228.52539234 323.5570939 228.0514869 325.11440194 227.578125 326.671875 C215.83931705 364.40916728 195.13797019 397.46458825 168 426 C167.46213867 426.56654297 166.92427734 427.13308594 166.37011719 427.71679688 C158.14962821 436.31245548 149.58203714 443.95982963 140 451 C139.35192383 451.48178711 138.70384766 451.96357422 138.03613281 452.45996094 C104.08930367 477.58094138 66.08131974 492.63705129 24.5625 499.6875 C23.51787598 499.86647827 23.51787598 499.86647827 22.45214844 500.04907227 C-35.72394747 509.52358247 -101.68360708 494.93132849 -150.05859375 461.14453125 C-151.02925781 460.43683594 -151.99992187 459.72914063 -153 459 C-153.60086426 458.56606934 -154.20172852 458.13213867 -154.82080078 457.68505859 C-174.80042418 443.20815026 -194.14439753 426.84228098 -209 407 C-209.70987061 406.06414062 -209.70987061 406.06414062 -210.43408203 405.109375 C-250.5226834 352.04029649 -270.47694066 285.70732918 -261.875 219.125 C-256.31521836 180.51616981 -242.82209884 141.89538763 -220 110 C-219.35417969 109.08089844 -218.70835937 108.16179687 -218.04296875 107.21484375 C-202.96157303 86.06519414 -185.00435283 66.37063642 -164 51 C-163.42008301 50.56993652 -162.84016602 50.13987305 -162.24267578 49.69677734 C-114.44416205 14.31928429 -59.13502664 -1.65740212 0 0 Z " fill="#FF0000" transform="translate(492,229)"/>
<path d="M0 0 C1.496084 0.02152209 2.99217626 0.04249 4.48828125 0.0625 C63.13158471 2.07816671 121.61544379 30.24177957 163 71 C164.16625609 72.12802881 165.33291894 73.25563724 166.5 74.3828125 C199.973826 106.97499178 222.40155199 149.7768114 233 195 C233.38103882 196.54929199 233.38103882 196.54929199 233.76977539 198.12988281 C243.30976876 237.65988317 241.58417471 283.2407419 229 322 C228.52539234 323.5570939 228.0514869 325.11440194 227.578125 326.671875 C215.83931705 364.40916728 195.13797019 397.46458825 168 426 C167.46213867 426.56654297 166.92427734 427.13308594 166.37011719 427.71679688 C158.14962821 436.31245548 149.58203714 443.95982963 140 451 C139.35192383 451.48178711 138.70384766 451.96357422 138.03613281 452.45996094 C104.08930367 477.58094138 66.08131974 492.63705129 24.5625 499.6875 C23.51787598 499.86647827 23.51787598 499.86647827 22.45214844 500.04907227 C-35.72394747 509.52358247 -101.68360708 494.93132849 -150.05859375 461.14453125 C-151.02925781 460.43683594 -151.99992187 459.72914063 -153 459 C-153.60086426 458.56606934 -154.20172852 458.13213867 -154.82080078 457.68505859 C-174.80042418 443.20815026 -194.14439753 426.84228098 -209 407 C-209.70987061 406.06414062 -209.70987061 406.06414062 -210.43408203 405.109375 C-250.5226834 352.04029649 -270.47694066 285.70732918 -261.875 219.125 C-256.31521836 180.51616981 -242.82209884 141.89538763 -220 110 C-219.35417969 109.08089844 -218.70835937 108.16179687 -218.04296875 107.21484375 C-202.96157303 86.06519414 -185.00435283 66.37063642 -164 51 C-163.42008301 50.56993652 -162.84016602 50.13987305 -162.24267578 49.69677734 C-114.44416205 14.31928429 -59.13502664 -1.65740212 0 0 Z M-113 45 C-113.93102539 45.44714355 -113.93102539 45.44714355 -114.88085938 45.90332031 C-131.02172793 53.74885503 -146.60949816 64.05482217 -160 76 C-160.95648438 76.84820312 -161.91296875 77.69640625 -162.8984375 78.5703125 C-202.55390783 114.14755638 -231.01985335 161.77703848 -239 215 C-239.18691406 216.21558594 -239.37382812 217.43117188 -239.56640625 218.68359375 C-242.54588074 240.53136543 -243.0407323 265.26596148 -239 287 C-238.73340576 288.45817139 -238.73340576 288.45817139 -238.46142578 289.94580078 C-229.94226456 334.9950169 -209.78409624 375.92533139 -178 409 C-177.43265137 409.59458008 -176.86530273 410.18916016 -176.28076172 410.80175781 C-167.75475463 419.69228094 -158.97017347 427.76093903 -149 435 C-148.38044434 435.4532666 -147.76088867 435.9065332 -147.12255859 436.37353516 C-136.88972464 443.80071776 -126.20839992 450.16146072 -115 456 C-114.33484375 456.3515918 -113.6696875 456.70318359 -112.984375 457.06542969 C-92.97323856 467.52124848 -70.28230223 474.52108572 -48 478 C-46.90816406 478.18691406 -45.81632813 478.37382813 -44.69140625 478.56640625 C14.04346489 487.16321953 76.19815145 471.37893083 123.859375 436.1875 C131.65911135 430.2728046 138.94529135 423.77943418 146 417 C146.59458008 416.43265137 147.18916016 415.86530273 147.80175781 415.28076172 C156.1601977 407.26502218 163.85059311 399.03829725 170.73242188 389.71630859 C171.98942094 388.01432411 173.2672632 386.32955002 174.546875 384.64453125 C181.30243676 375.61273826 186.81298702 366.00274504 192 356 C192.35304199 355.32130859 192.70608398 354.64261719 193.06982422 353.94335938 C215.24083262 310.68389061 223.35213885 258.88517763 214 211 C213.7834375 209.79730469 213.566875 208.59460938 213.34375 207.35546875 C207.36731227 176.79737344 195.48131163 146.20866024 177 121 C176.31808594 120.04738281 175.63617187 119.09476562 174.93359375 118.11328125 C153.58760062 88.90096508 126.81146567 65.25710587 95 48 C94.31905273 47.62810547 93.63810547 47.25621094 92.93652344 46.87304688 C65.58743266 32.23695959 32.04277525 22.34470694 1 22 C-0.06589355 21.98098633 -1.13178711 21.96197266 -2.22998047 21.94238281 C-41.48439104 21.30562732 -77.44735713 27.67547168 -113 45 Z " fill="#FFFCFC" transform="translate(492,229)"/>
<path d="M0 0 C18.2410386 9.1205193 18.2410386 9.1205193 25.9375 13.625 C27.72987207 14.66118906 29.52286873 15.69629828 31.31640625 16.73046875 C32.23953613 17.26333496 33.16266602 17.79620117 34.11376953 18.34521484 C39.17855459 21.24904779 44.27752757 24.0915655 49.375 26.9375 C62.21982526 34.11557758 75.02936329 41.35501168 87.83398438 48.60449219 C90.68073174 50.21595104 93.52775631 51.82691824 96.375 53.4375 C97.78845703 54.23704102 97.78845703 54.23704102 99.23046875 55.05273438 C106.35056146 59.07650454 113.48596379 63.07245882 120.625 67.0625 C129.1281795 71.81558275 137.60133036 76.61723825 146.05175781 81.46337891 C152.8031678 85.3295382 159.58400891 89.14135217 166.375 92.9375 C174.73638123 97.61226341 183.09384395 102.29365438 191.4375 107 C192.3538623 107.51554443 193.27022461 108.03108887 194.21435547 108.56225586 C200.20316344 111.94409973 206.11948393 115.43327214 212 119 C209.490685 121.64107068 207.11664951 123.7224661 203.97265625 125.55859375 C203.19196777 126.01975586 202.4112793 126.48091797 201.60693359 126.95605469 C200.34743896 127.68937012 200.34743896 127.68937012 199.0625 128.4375 C197.24271923 129.51302055 195.4237327 130.58988588 193.60546875 131.66796875 C192.6726709 132.2201709 191.73987305 132.77237305 190.77880859 133.34130859 C186.44629678 135.92741695 182.15942528 138.58521606 177.875 141.25 C176.11595511 142.34256013 174.35683874 143.43500519 172.59765625 144.52734375 C171.69289551 145.08921387 170.78813477 145.65108398 169.85595703 146.22998047 C164.68234756 149.43639769 159.49714571 152.62396994 154.3125 155.8125 C153.22114746 156.4837793 152.12979492 157.15505859 151.00537109 157.84667969 C148.78048569 159.21508699 146.55555056 160.58341344 144.33056641 161.95166016 C138.88632432 165.29993688 133.4432111 168.65004759 128 172 C125.83333892 173.33334242 123.66667225 174.66667574 121.5 176 C120.4275 176.66 119.355 177.32 118.25 178 C97.66666667 190.66666667 77.08333333 203.33333333 56.5 216 C55.42621094 216.66080566 54.35242188 217.32161133 53.24609375 218.00244141 C51.09249268 219.32770946 48.93884728 220.65290548 46.78515625 221.97802734 C41.761138 225.069321 36.73753269 228.16127859 31.71557617 231.25592041 C29.3735528 232.69906408 27.03126805 234.14178322 24.68896484 235.58447266 C23.05931709 236.58845628 21.43004209 237.59304487 19.80078125 238.59765625 C14.98017328 241.56655822 10.15428565 244.52667804 5.3125 247.4609375 C4.50425781 247.95126465 3.69601562 248.4415918 2.86328125 248.94677734 C1 250 1 250 0 250 C0 167.5 0 85 0 0 Z " fill="#FFFEFE" transform="translate(393,355)"/>
</svg>
