<svg width="32" height="32" viewBox="0 0 32 32" fill="none" xmlns="http://www.w3.org/2000/svg">
<path d="M16 26.1819C14.5915 26.1819 13.2679 25.9144 12.0291 25.3795C10.7903 24.8453 9.71274 24.1201 8.79637 23.2037C7.88001 22.2873 7.15472 21.2098 6.62052 19.971C6.08563 18.7322 5.81819 17.4085 5.81819 16.0001C5.81819 14.5916 6.08563 13.2679 6.62052 12.0291C7.15472 10.7904 7.88001 9.71278 8.79637 8.79642C9.71274 7.88006 10.7903 7.15443 12.0291 6.61955C13.2679 6.08534 14.5915 5.81824 16 5.81824C17.4085 5.81824 18.7321 6.08534 19.9709 6.61955C21.2097 7.15443 22.2873 7.88006 23.2036 8.79642C24.12 9.71278 24.8453 10.7904 25.3795 12.0291C25.9144 13.2679 26.1818 14.5916 26.1818 16.0001C26.1818 17.4085 25.9144 18.7322 25.3795 19.971C24.8453 21.2098 24.12 22.2873 23.2036 23.2037C22.2873 24.1201 21.2097 24.8453 19.9709 25.3795C18.7321 25.9144 17.4085 26.1819 16 26.1819Z" fill="white"/>
<path fill-rule="evenodd" clip-rule="evenodd" d="M16 29.0909C23.2299 29.0909 29.0909 23.2299 29.0909 16C29.0909 8.77009 23.2299 2.90909 16 2.90909C8.77009 2.90909 2.90909 8.77009 2.90909 16C2.90909 23.2299 8.77009 29.0909 16 29.0909ZM16 32C24.8366 32 32 24.8366 32 16C32 7.16344 24.8366 0 16 0C7.16344 0 0 7.16344 0 16C0 24.8366 7.16344 32 16 32Z" fill="white" fill-opacity="0.5"/>
</svg>
